<?xml version="1.0" encoding="UTF-8" standalone="no"?>
<!-- Created with Inkscape (http://www.inkscape.org/) -->

<svg
   version="1.1"
   id="svg2"
   xml:space="preserve"
   width="167.09999"
   height="235.72847"
   viewBox="0 0 167.09999 235.72847"
   sodipodi:docname="page.svg"
   inkscape:version="1.1.2 (0a00cf5339, 2022-02-04)"
   xmlns:inkscape="http://www.inkscape.org/namespaces/inkscape"
   xmlns:sodipodi="http://sodipodi.sourceforge.net/DTD/sodipodi-0.dtd"
   xmlns="http://www.w3.org/2000/svg"
   xmlns:svg="http://www.w3.org/2000/svg"><defs
     id="defs6"><clipPath
       clipPathUnits="userSpaceOnUse"
       id="clipPath1512"><path
         d="M 0,0 H 139.25 V 196.45 H 0 Z"
         id="path1510" /></clipPath></defs><sodipodi:namedview
     id="namedview4"
     pagecolor="#505050"
     bordercolor="#eeeeee"
     borderopacity="1"
     inkscape:pageshadow="0"
     inkscape:pageopacity="0"
     inkscape:pagecheckerboard="0"
     showgrid="false"
     inkscape:zoom="3.0290524"
     inkscape:cx="72.13477"
     inkscape:cy="124.95657"
     inkscape:window-width="1920"
     inkscape:window-height="1023"
     inkscape:window-x="0"
     inkscape:window-y="20"
     inkscape:window-maximized="1"
     inkscape:current-layer="g1506" /><g
     id="g8"
     inkscape:groupmode="layer"
     inkscape:label="page"
     transform="matrix(1.3333333,0,0,-1.3333333,-549.59791,524.38718)"><g
       id="g1504"
       transform="matrix(0.9,0,0,0.9,404.71577,231.62721)"><g
         id="g1506"
         transform="translate(8.3140768,-16.819435)"><g
           id="g1508" /><g
           id="g1822"><g
             clip-path="url(#clipPath1512)"
             id="g1820"><g
               id="g1818"><g
                 transform="matrix(1,0,0,-1,0,196.45)"
                 id="g1516"><path
                   d="M 0.418,0.43 H 138.836 V 196.02 H 0.418 Z"
                   style="fill:none;stroke:#000000;stroke-width:0.850394;stroke-linecap:butt;stroke-linejoin:miter;stroke-miterlimit:4;stroke-dasharray:none;stroke-opacity:1"
                   id="path1514" /></g><g
                 transform="matrix(1,0,0,-1,0,196.45)"
                 id="g1520"><path
                   d="m 116.637,28.777 h 17.008 v 136.062 h -17.008 z"
                   style="fill:none;stroke:#000000;stroke-width:0.566929;stroke-linecap:butt;stroke-linejoin:miter;stroke-miterlimit:4;stroke-dasharray:1.70079, 0.566929;stroke-dashoffset:0;stroke-opacity:1"
                   id="path1518" /></g><g
                 transform="matrix(1,0,0,-1,0,196.45)"
                 id="g1524"><path
                   d="m 23.094,28.777 h 87.875 V 164.839 H 23.094 Z"
                   style="fill:none;stroke:#000000;stroke-width:0.850394;stroke-linecap:butt;stroke-linejoin:miter;stroke-miterlimit:4;stroke-dasharray:none;stroke-opacity:1"
                   id="path1522" /></g><g
                 transform="matrix(1,0,0,-1,0,196.45)"
                 id="g1528"><path
                   d="m 23.707,20.273 h 87.262 v 5.668 H 23.707 Z"
                   style="fill:none;stroke:#000000;stroke-width:0.566929;stroke-linecap:butt;stroke-linejoin:miter;stroke-miterlimit:4;stroke-dasharray:1.70079, 0.566929;stroke-dashoffset:0;stroke-opacity:1"
                   id="path1526" /></g><g
                 transform="matrix(1,0,0,-1,0,196.45)"
                 id="g1532"><path
                   d="m 23.094,170.508 h 87.875 v 5.672 H 23.094 Z"
                   style="fill:none;stroke:#000000;stroke-width:0.566929;stroke-linecap:butt;stroke-linejoin:miter;stroke-miterlimit:4;stroke-dasharray:1.70079, 0.566929;stroke-dashoffset:0;stroke-opacity:1"
                   id="path1530" /></g><text
                 transform="matrix(1,0,0,-1,116.63819,102.47578)"
                 style="font-variant:normal;font-size:5.6px;font-family:CairoFont-0;-inkscape-font-specification:CairoFont-0-0;writing-mode:lr-tb;fill:#000000;fill-opacity:1;fill-rule:nonzero;stroke:none"
                 id="text1538"><tspan
                   x="0 4.9000001 7.5879998 9.5031996 12.3032 13.636"
                   y="0"
                   sodipodi:role="line"
                   id="tspan1534">Margin</tspan><tspan
                   x="0 3.9591999 6.7592001 8.7751999 11.2616"
                   y="5.5999999"
                   sodipodi:role="line"
                   id="tspan1536">Notes</tspan></text><text
                 transform="matrix(1,0,0,-1,59.094867,101.23301)"
                 style="font-variant:normal;font-size:8px;font-family:CairoFont-0;-inkscape-font-specification:CairoFont-0-0;writing-mode:lr-tb;fill:#000000;fill-opacity:1;fill-rule:nonzero;stroke:none"
                 id="text1542"><tspan
                   x="0 5.336 9.3360004 13.472"
                   y="0"
                   sodipodi:role="line"
                   id="tspan1540">Body</tspan></text><text
                 transform="matrix(1,0,0,-1,57.110632,171.18847)"
                 style="font-variant:normal;font-size:6.4px;font-family:CairoFont-0;-inkscape-font-specification:CairoFont-0-0;writing-mode:lr-tb;fill:#000000;fill-opacity:1;fill-rule:nonzero;stroke:none"
                 id="text1548"><tspan
                   x="0 4.5247998 7.3663998 10.4384 13.7472 16.5888"
                   y="0"
                   sodipodi:role="line"
                   id="tspan1544">Header</tspan><tspan
                   x="-0.13083521 3.5043647 6.7043648 9.9043646 12.208364 15.049965"
                   y="150.05664"
                   sodipodi:role="line"
                   id="tspan1546">Footer</tspan></text><g
                 transform="matrix(1,0,0,-1,0,196.45)"
                 id="g1552"><path
                   d="M 122.309,3.266 V 14.605"
                   style="fill:none;stroke:#000000;stroke-width:0.283465;stroke-linecap:butt;stroke-linejoin:miter;stroke-miterlimit:4;stroke-dasharray:none;stroke-opacity:1"
                   id="path1550" /></g><path
                 d="m 121.629,191.766 0.68,4.25 0.679,-4.25 z"
                 style="fill:#000000;fill-opacity:1;fill-rule:nonzero;stroke:none"
                 id="path1554" /><path
                 d="m 121.629,183.262 0.68,-4.25 0.679,4.25 z"
                 style="fill:#000000;fill-opacity:1;fill-rule:nonzero;stroke:none"
                 id="path1556" /><g
                 transform="matrix(1,0,0,-1,0,196.45)"
                 id="g1560"><path
                   d="M 91.125,31.613 V 162.004"
                   style="fill:none;stroke:#000000;stroke-width:0.283465;stroke-linecap:butt;stroke-linejoin:miter;stroke-miterlimit:4;stroke-dasharray:none;stroke-opacity:1"
                   id="path1558" /></g><path
                 d="m 90.445,163.423 0.68,4.246 0.68,-4.246 z"
                 style="fill:#000000;fill-opacity:1;fill-rule:nonzero;stroke:none"
                 id="path1562" /><path
                 d="m 90.445,35.86 0.68,-4.25 0.68,4.25 z"
                 style="fill:#000000;fill-opacity:1;fill-rule:nonzero;stroke:none"
                 id="path1564" /><g
                 transform="matrix(1,0,0,-1,0,196.45)"
                 id="g1568"><path
                   d="M 108.133,136.492 H 25.93"
                   style="fill:none;stroke:#000000;stroke-width:0.283465;stroke-linecap:butt;stroke-linejoin:miter;stroke-miterlimit:4;stroke-dasharray:none;stroke-opacity:1"
                   id="path1566" /></g><path
                 d="m 106.719,60.637 4.246,-0.679 -4.246,-0.68 z"
                 style="fill:#000000;fill-opacity:1;fill-rule:nonzero;stroke:none"
                 id="path1570" /><path
                 d="m 27.348,60.637 -4.25,-0.679 4.25,-0.68 z"
                 style="fill:#000000;fill-opacity:1;fill-rule:nonzero;stroke:none"
                 id="path1572" /><g
                 transform="matrix(1,0,0,-1,0,196.45)"
                 id="g1576"><path
                   d="M 130.812,57.125 H 119.473"
                   style="fill:none;stroke:#000000;stroke-width:0.283465;stroke-linecap:butt;stroke-linejoin:miter;stroke-miterlimit:4;stroke-dasharray:none;stroke-opacity:1"
                   id="path1574" /></g><path
                 d="m 129.395,140.005 4.25,-0.68 -4.25,-0.68 z"
                 style="fill:#000000;fill-opacity:1;fill-rule:nonzero;stroke:none"
                 id="path1578" /><path
                 d="m 120.891,140.005 -4.25,-0.68 4.25,-0.68 z"
                 style="fill:#000000;fill-opacity:1;fill-rule:nonzero;stroke:none"
                 id="path1580" /><g
                 transform="matrix(1,0,0,-1,0,196.45)"
                 id="g1584"><path
                   d="M 14.59,40.117 H 3.254"
                   style="fill:none;stroke:#000000;stroke-width:0.283465;stroke-linecap:butt;stroke-linejoin:miter;stroke-miterlimit:4;stroke-dasharray:none;stroke-opacity:1"
                   id="path1582" /></g><path
                 d="m 13.176,157.012 4.246,-0.679 -4.246,-0.68 z"
                 style="fill:#000000;fill-opacity:1;fill-rule:nonzero;stroke:none"
                 id="path1586" /><path
                 d="m 4.668,157.012 -4.246,-0.679 4.246,-0.68 z"
                 style="fill:#000000;fill-opacity:1;fill-rule:nonzero;stroke:none"
                 id="path1588" /><g
                 transform="matrix(1,0,0,-1,0,196.45)"
                 id="g1592"><path
                   d="m 108.133,119.484 h -6.016"
                   style="fill:none;stroke:#000000;stroke-width:0.283465;stroke-linecap:butt;stroke-linejoin:miter;stroke-miterlimit:4;stroke-dasharray:none;stroke-opacity:1"
                   id="path1590" /></g><path
                 d="m 106.719,77.645 4.246,-0.679 -4.246,-0.68 z"
                 style="fill:#000000;fill-opacity:1;fill-rule:nonzero;stroke:none"
                 id="path1594" /><g
                 transform="matrix(1,0,0,-1,0,196.45)"
                 id="g1598"><path
                   d="m 119.473,119.484 h 6.019"
                   style="fill:none;stroke:#000000;stroke-width:0.283465;stroke-linecap:butt;stroke-linejoin:miter;stroke-miterlimit:4;stroke-dasharray:none;stroke-opacity:1"
                   id="path1596" /></g><path
                 d="m 120.891,76.286 -4.25,0.68 4.25,0.679 z"
                 style="fill:#000000;fill-opacity:1;fill-rule:nonzero;stroke:none"
                 id="path1600" /><g
                 transform="matrix(1,0,0,-1,0,196.45)"
                 id="g1604"><path
                   d="m 34.434,178.664 v 6.02"
                   style="fill:none;stroke:#000000;stroke-width:0.283465;stroke-linecap:butt;stroke-linejoin:miter;stroke-miterlimit:4;stroke-dasharray:none;stroke-opacity:1"
                   id="path1602" /></g><path
                 d="m 33.754,16.368 0.68,4.25 0.679,-4.25 z"
                 style="fill:#000000;fill-opacity:1;fill-rule:nonzero;stroke:none"
                 id="path1606" /><g
                 transform="matrix(1,0,0,-1,0,196.45)"
                 id="g1610"><path
                   d="m 34.434,162.004 v -6.016"
                   style="fill:none;stroke:#000000;stroke-width:0.283465;stroke-linecap:butt;stroke-linejoin:miter;stroke-miterlimit:4;stroke-dasharray:none;stroke-opacity:1"
                   id="path1608" /></g><path
                 d="m 35.113,35.86 -0.679,-4.25 -0.68,4.25 z"
                 style="fill:#000000;fill-opacity:1;fill-rule:nonzero;stroke:none"
                 id="path1612" /><g
                 transform="matrix(1,0,0,-1,0,196.45)"
                 id="g1616"><path
                   d="m 34.434,23.109 v 8.504"
                   style="fill:none;stroke:#000000;stroke-width:0.283465;stroke-linecap:butt;stroke-linejoin:miter;stroke-miterlimit:4;stroke-dasharray:none;stroke-opacity:1"
                   id="path1614" /></g><path
                 d="m 33.754,171.927 0.68,4.246 0.679,-4.246 z"
                 style="fill:#000000;fill-opacity:1;fill-rule:nonzero;stroke:none"
                 id="path1618" /><g
                 transform="matrix(1,0,0,-1,0,196.45)"
                 id="g1622"><path
                   d="M 34.434,14.605 V 8.586"
                   style="fill:none;stroke:#000000;stroke-width:0.283465;stroke-linecap:butt;stroke-linejoin:miter;stroke-miterlimit:4;stroke-dasharray:none;stroke-opacity:1"
                   id="path1620" /></g><path
                 d="m 35.113,183.262 -0.679,-4.25 -0.68,4.25 z"
                 style="fill:#000000;fill-opacity:1;fill-rule:nonzero;stroke:none"
                 id="path1624" /><g
                 transform="matrix(1,0,0,-1,0,196.45)"
                 id="g1628"><path
                   d="M 14.59,105.312 H 8.574"
                   style="fill:none;stroke:#000000;stroke-width:0.283465;stroke-linecap:butt;stroke-linejoin:miter;stroke-miterlimit:4;stroke-dasharray:none;stroke-opacity:1"
                   id="path1626" /></g><path
                 d="m 13.176,91.817 4.246,-0.68 -4.246,-0.679 z"
                 style="fill:#000000;fill-opacity:1;fill-rule:nonzero;stroke:none"
                 id="path1630" /><g
                 transform="matrix(1,0,0,-1,0,196.45)"
                 id="g1634"><path
                   d="m 25.93,105.312 h 6.019"
                   style="fill:none;stroke:#000000;stroke-width:0.283465;stroke-linecap:butt;stroke-linejoin:miter;stroke-miterlimit:4;stroke-dasharray:none;stroke-opacity:1"
                   id="path1632" /></g><path
                 d="m 27.348,90.458 -4.25,0.679 4.25,0.68 z"
                 style="fill:#000000;fill-opacity:1;fill-rule:nonzero;stroke:none"
                 id="path1636" /><g
                 transform="matrix(0.999997,0,0,-1,0,196.45)"
                 id="g1640"><path
                   d="m 18.93,17.438 c 0,0.832 -0.672,1.503 -1.504,1.503 -0.832,0 -1.504,-0.671 -1.504,-1.503 0,-0.829 0.672,-1.504 1.504,-1.504 0.832,0 1.504,0.675 1.504,1.504 z"
                   style="fill:none;stroke:#000000;stroke-width:0.56693;stroke-linecap:square;stroke-linejoin:miter;stroke-miterlimit:7.7;stroke-dasharray:none;stroke-opacity:1"
                   id="path1638" /></g><g
                 transform="matrix(1,0,0,-1,0,196.45)"
                 id="g1644"><path
                   d="M 17.406,0.43 V 196.02"
                   style="fill:none;stroke:#000000;stroke-width:0.708661;stroke-linecap:butt;stroke-linejoin:miter;stroke-miterlimit:4;stroke-dasharray:2.83465, 2.83465;stroke-dashoffset:0;stroke-opacity:1"
                   id="path1642" /></g><g
                 transform="matrix(1,0,0,-1,0,196.45)"
                 id="g1648"><path
                   d="M 0.418,17.457 H 138.836"
                   style="fill:none;stroke:#000000;stroke-width:0.708661;stroke-linecap:butt;stroke-linejoin:miter;stroke-miterlimit:4;stroke-dasharray:2.83465, 2.83465;stroke-dashoffset:0;stroke-opacity:1"
                   id="path1646" /></g><g
                 transform="matrix(1,0,0,-1,0,196.45)"
                 id="g1652"><path
                   d="m 42.938,28.777 v 6.02"
                   style="fill:none;stroke:#000000;stroke-width:0.283465;stroke-linecap:butt;stroke-linejoin:miter;stroke-miterlimit:4;stroke-dasharray:none;stroke-opacity:1"
                   id="path1650" /></g><path
                 d="m 42.258,166.255 0.68,4.25 0.679,-4.25 z"
                 style="fill:#000000;fill-opacity:1;fill-rule:nonzero;stroke:none"
                 id="path1654" /><g
                 transform="matrix(1,0,0,-1,0,196.45)"
                 id="g1658"><path
                   d="M 42.938,17.438 V 11.422"
                   style="fill:none;stroke:#000000;stroke-width:0.283465;stroke-linecap:butt;stroke-linejoin:miter;stroke-miterlimit:4;stroke-dasharray:none;stroke-opacity:1"
                   id="path1656" /></g><path
                 d="m 43.617,180.427 -0.679,-4.247 -0.68,4.247 z"
                 style="fill:#000000;fill-opacity:1;fill-rule:nonzero;stroke:none"
                 id="path1660" /><g
                 transform="matrix(1,0,0,-1,0,196.45)"
                 id="g1664"><path
                   d="m 51.441,31.613 v 6.016"
                   style="fill:none;stroke:#000000;stroke-width:0.283465;stroke-linecap:butt;stroke-linejoin:miter;stroke-miterlimit:4;stroke-dasharray:none;stroke-opacity:1"
                   id="path1662" /></g><path
                 d="m 50.762,163.423 0.679,4.246 0.68,-4.246 z"
                 style="fill:#000000;fill-opacity:1;fill-rule:nonzero;stroke:none"
                 id="path1666" /><g
                 transform="matrix(1,0,0,-1,0,196.45)"
                 id="g1670"><path
                   d="M 51.441,23.109 V 17.09"
                   style="fill:none;stroke:#000000;stroke-width:0.283465;stroke-linecap:butt;stroke-linejoin:miter;stroke-miterlimit:4;stroke-dasharray:none;stroke-opacity:1"
                   id="path1668" /></g><path
                 d="m 52.121,174.759 -0.68,-4.25 -0.679,4.25 z"
                 style="fill:#000000;fill-opacity:1;fill-rule:nonzero;stroke:none"
                 id="path1672" /><text
                 transform="matrix(1,0,0,-1,7.199988,148.15332)"
                 style="font-variant:normal;font-size:7.2px;font-family:CairoFont-0;-inkscape-font-specification:CairoFont-0-0;writing-mode:lr-tb;fill:#000000;fill-opacity:1;fill-rule:nonzero;stroke:none"
                 id="text1682"><tspan
                   x="0"
                   y="0"
                   id="tspan1674">1</tspan><tspan
                   x="107.83821"
                   y="-38.281933"
                   id="tspan1676">2</tspan><tspan
                   x="0.28702801"
                   y="52.481449"
                   id="tspan1678">3</tspan><tspan
                   x="19.529547"
                   y="-38.71191"
                   id="tspan1680">4</tspan></text><g
                 transform="matrix(0.979929,0,0,-1,0,196.45)"
                 id="g1686"><path
                   d="m 123.092,7.707 c 0,2.242 -1.818,4.063 -4.066,4.063 -2.241,0 -4.062,-1.821 -4.062,-4.063 0,-2.246 1.821,-4.066 4.062,-4.066 2.248,0 4.066,1.82 4.066,4.066 z"
                   style="fill:none;stroke:#000000;stroke-width:0.572706;stroke-linecap:square;stroke-linejoin:miter;stroke-miterlimit:7.7;stroke-dasharray:none;stroke-opacity:1"
                   id="path1684" /></g><g
                 transform="matrix(0.979929,0,0,-1,0,196.45)"
                 id="g1690"><path
                   d="m 13.171,45.816 c 0,2.246 -1.822,4.067 -4.066,4.067 -2.245,0 -4.062,-1.821 -4.062,-4.067 0,-2.242 1.817,-4.062 4.062,-4.062 2.244,0 4.066,1.82 4.066,4.062 z"
                   style="fill:none;stroke:#000000;stroke-width:0.572706;stroke-linecap:square;stroke-linejoin:miter;stroke-miterlimit:7.7;stroke-dasharray:none;stroke-opacity:1"
                   id="path1688" /></g><g
                 transform="matrix(0.979929,0,0,-1,0,196.45)"
                 id="g1694"><path
                   d="m 62.345,38.887 c 0,2.246 -1.818,4.062 -4.066,4.062 -2.244,0 -4.062,-1.816 -4.062,-4.062 0,-2.242 1.818,-4.063 4.062,-4.063 2.248,0 4.066,1.821 4.066,4.063 z"
                   style="fill:none;stroke:#000000;stroke-width:0.572706;stroke-linecap:square;stroke-linejoin:miter;stroke-miterlimit:7.7;stroke-dasharray:none;stroke-opacity:1"
                   id="path1692" /></g><g
                 transform="matrix(0.979929,0,0,-1,0,196.45)"
                 id="g1698"><path
                   d="m 50.773,7.707 c 0,2.242 -1.818,4.063 -4.062,4.063 -2.244,0 -4.066,-1.821 -4.066,-4.063 0,-2.246 1.822,-4.066 4.066,-4.066 2.244,0 4.062,1.82 4.062,4.066 z"
                   style="fill:none;stroke:#000000;stroke-width:0.572706;stroke-linecap:square;stroke-linejoin:miter;stroke-miterlimit:7.7;stroke-dasharray:none;stroke-opacity:1"
                   id="path1696" /></g><g
                 transform="matrix(0.979929,0,0,-1,0,196.45)"
                 id="g1702"><path
                   d="m 33.417,7.328 c 0,2.246 -1.818,4.067 -4.062,4.067 -2.244,0 -4.066,-1.821 -4.066,-4.067 0,-2.242 1.822,-4.062 4.066,-4.062 2.244,0 4.062,1.82 4.062,4.062 z"
                   style="fill:none;stroke:#000000;stroke-width:0.572706;stroke-linecap:square;stroke-linejoin:miter;stroke-miterlimit:7.7;stroke-dasharray:none;stroke-opacity:1"
                   id="path1700" /></g><text
                 transform="matrix(1,0,0,-1,44.022046,186.36523)"
                 style="font-variant:normal;font-size:7.2px;font-family:CairoFont-0;-inkscape-font-specification:CairoFont-0-0;writing-mode:lr-tb;fill:#000000;fill-opacity:1;fill-rule:nonzero;stroke:none"
                 id="text1714"><tspan
                   x="0"
                   y="0"
                   id="tspan1704">5</tspan><tspan
                   x="11.128939"
                   y="31.206154"
                   id="tspan1706">6</tspan><tspan
                   x="39.802479"
                   y="65.036812"
                   id="tspan1708">7</tspan><tspan
                   x="14.078527"
                   y="122.01875"
                   id="tspan1710">8</tspan><tspan
                   x="56.675144"
                   y="105.13994"
                   id="tspan1712">9</tspan></text><g
                 transform="matrix(0.979929,0,0,-1,0,196.45)"
                 id="g1718"><path
                   d="m 13.171,98.414 c 0,2.246 -1.822,4.063 -4.066,4.063 -2.245,0 -4.062,-1.817 -4.062,-4.063 0,-2.242 1.817,-4.062 4.062,-4.062 2.244,0 4.066,1.82 4.066,4.062 z"
                   style="fill:none;stroke:#000000;stroke-width:0.572706;stroke-linecap:square;stroke-linejoin:miter;stroke-miterlimit:7.7;stroke-dasharray:none;stroke-opacity:1"
                   id="path1716" /></g><text
                 transform="matrix(1,0,0,-1,121.95393,144.32382)"
                 style="font-variant:normal;font-size:7.2px;font-family:CairoFont-0;-inkscape-font-specification:CairoFont-0-0;writing-mode:lr-tb;fill:#000000;fill-opacity:1;fill-rule:nonzero;stroke:none"
                 id="text1724"><tspan
                   x="0 3.5999999"
                   y="0"
                   sodipodi:role="line"
                   id="tspan1720">10</tspan><tspan
                   x="-85.030487 -81.430489"
                   y="137.01836"
                   sodipodi:role="line"
                   id="tspan1722">11</tspan></text><g
                 transform="matrix(0.979929,0,0,-1,0,196.45)"
                 id="g1728"><path
                   d="m 91.273,72.902 c 0,2.246 -1.821,4.063 -4.066,4.063 -2.244,0 -4.062,-1.817 -4.062,-4.063 0,-2.242 1.818,-4.062 4.062,-4.062 2.245,0 4.066,1.82 4.066,4.062 z"
                   style="fill:none;stroke:#000000;stroke-width:0.572706;stroke-linecap:square;stroke-linejoin:miter;stroke-miterlimit:7.7;stroke-dasharray:none;stroke-opacity:1"
                   id="path1726" /></g><g
                 transform="matrix(0.979929,0,0,-1,0,196.45)"
                 id="g1732"><path
                   d="m 65.239,129.598 c 0,2.242 -1.822,4.062 -4.066,4.062 -2.244,0 -4.062,-1.82 -4.062,-4.062 0,-2.246 1.818,-4.067 4.062,-4.067 2.244,0 4.066,1.821 4.066,4.067 z"
                   style="fill:none;stroke:#000000;stroke-width:0.572706;stroke-linecap:square;stroke-linejoin:miter;stroke-miterlimit:7.7;stroke-dasharray:none;stroke-opacity:1"
                   id="path1730" /></g><g
                 transform="matrix(0.979929,0,0,-1,0,196.45)"
                 id="g1736"><path
                   d="m 108.63,112.59 c 0,2.242 -1.822,4.062 -4.066,4.062 -2.245,0 -4.062,-1.82 -4.062,-4.062 0,-2.246 1.817,-4.067 4.062,-4.067 2.244,0 4.066,1.821 4.066,4.067 z"
                   style="fill:none;stroke:#000000;stroke-width:0.572706;stroke-linecap:square;stroke-linejoin:miter;stroke-miterlimit:7.7;stroke-dasharray:none;stroke-opacity:1"
                   id="path1734" /></g><g
                 transform="matrix(0.980059,0,0,-1,0,196.45)"
                 id="g1740"><path
                   d="m 132.653,49.777 c 0,2.493 -2.021,4.512 -4.512,4.512 -2.495,0 -4.516,-2.019 -4.516,-4.512 0,-2.492 2.021,-4.515 4.516,-4.515 2.491,0 4.512,2.023 4.512,4.515 z"
                   style="fill:none;stroke:#000000;stroke-width:0.572668;stroke-linecap:square;stroke-linejoin:miter;stroke-miterlimit:7.7;stroke-dasharray:none;stroke-opacity:1"
                   id="path1738" /></g><g
                 transform="matrix(0.980056,0,0,-1,0,196.45)"
                 id="g1744"><path
                   d="m 45.86,186.727 c 0,2.484 -2.017,4.5 -4.504,4.5 -2.483,0 -4.5,-2.016 -4.5,-4.5 0,-2.485 2.017,-4.5 4.5,-4.5 2.487,0 4.504,2.015 4.504,4.5 z"
                   style="fill:none;stroke:#000000;stroke-width:0.572669;stroke-linecap:square;stroke-linejoin:miter;stroke-miterlimit:7.7;stroke-dasharray:none;stroke-opacity:1"
                   id="path1742" /></g><g
                 transform="matrix(1,0,0,-1,0,196.45)"
                 id="g1748"><path
                   d="M 22.445,76.965 H 1.066"
                   style="fill:none;stroke:#800000;stroke-width:0.425197;stroke-linecap:butt;stroke-linejoin:miter;stroke-miterlimit:4;stroke-dasharray:none;stroke-opacity:1"
                   id="path1746" /></g><g
                 transform="matrix(-1,0,0,1,0,196.45)"
                 id="g1752"><path
                   d="m -17.898,-75.078 -5.11,-1.879 5.11,-1.883 c -0.817,1.113 -0.813,2.629 0,3.762 z"
                   style="fill:#800000;fill-opacity:1;fill-rule:evenodd;stroke:#800000;stroke-width:0.292323;stroke-linecap:butt;stroke-linejoin:round;stroke-miterlimit:4;stroke-dasharray:none;stroke-opacity:1"
                   id="path1750" /></g><g
                 transform="matrix(1,0,0,-1,0,196.45)"
                 id="g1756"><path
                   d="M 5.613,78.852 0.504,76.973 5.613,75.094 c -0.816,1.109 -0.812,2.629 0,3.758 z"
                   style="fill:#800000;fill-opacity:1;fill-rule:evenodd;stroke:#800000;stroke-width:0.292323;stroke-linecap:butt;stroke-linejoin:round;stroke-miterlimit:4;stroke-dasharray:none;stroke-opacity:1"
                   id="path1754" /></g><g
                 transform="matrix(1,0,0,-1,0,196.45)"
                 id="g1760"><path
                   d="M 137.902,76.965 H 111.617"
                   style="fill:none;stroke:#800000;stroke-width:0.425197;stroke-linecap:butt;stroke-linejoin:miter;stroke-miterlimit:4;stroke-dasharray:none;stroke-opacity:1"
                   id="path1758" /></g><g
                 transform="matrix(-1,0,0,1,0,196.45)"
                 id="g1764"><path
                   d="m -133.355,-75.078 -5.11,-1.879 5.11,-1.883 c -0.817,1.113 -0.813,2.629 0,3.762 z"
                   style="fill:#800000;fill-opacity:1;fill-rule:evenodd;stroke:#800000;stroke-width:0.292323;stroke-linecap:butt;stroke-linejoin:round;stroke-miterlimit:4;stroke-dasharray:none;stroke-opacity:1"
                   id="path1762" /></g><g
                 transform="matrix(1,0,0,-1,0,196.45)"
                 id="g1768"><path
                   d="m 116.164,78.852 -5.109,-1.879 5.109,-1.879 c -0.816,1.109 -0.812,2.629 0,3.758 z"
                   style="fill:#800000;fill-opacity:1;fill-rule:evenodd;stroke:#800000;stroke-width:0.292323;stroke-linecap:butt;stroke-linejoin:round;stroke-miterlimit:4;stroke-dasharray:none;stroke-opacity:1"
                   id="path1766" /></g><g
                 transform="matrix(1,0,0,-1,0,196.45)"
                 id="g1772"><path
                   d="M 82.621,19.445 V 1.66"
                   style="fill:none;stroke:#800000;stroke-width:0.425197;stroke-linecap:butt;stroke-linejoin:miter;stroke-miterlimit:4;stroke-dasharray:none;stroke-opacity:1"
                   id="path1770" /></g><g
                 transform="matrix(0,1,1,0,0,196.45)"
                 id="g1776"><path
                   d="m -14.898,84.508 -5.11,-1.879 5.11,-1.879 c -0.817,1.109 -0.813,2.629 0,3.758 z"
                   style="fill:#800000;fill-opacity:1;fill-rule:evenodd;stroke:#800000;stroke-width:0.292323;stroke-linecap:butt;stroke-linejoin:round;stroke-miterlimit:4;stroke-dasharray:none;stroke-opacity:1"
                   id="path1774" /></g><g
                 transform="matrix(0,-1,-1,0,0,196.45)"
                 id="g1780"><path
                   d="m 6.207,-80.734 -5.113,-1.879 5.113,-1.879 c -0.816,1.109 -0.812,2.625 0,3.758 z"
                   style="fill:#800000;fill-opacity:1;fill-rule:evenodd;stroke:#800000;stroke-width:0.292323;stroke-linecap:butt;stroke-linejoin:round;stroke-miterlimit:4;stroke-dasharray:none;stroke-opacity:1"
                   id="path1778" /></g><g
                 transform="matrix(1,0,0,-1,0,196.45)"
                 id="g1784"><path
                   d="M 82.621,195.02 V 177.066"
                   style="fill:none;stroke:#800000;stroke-width:0.425197;stroke-linecap:butt;stroke-linejoin:miter;stroke-miterlimit:4;stroke-dasharray:none;stroke-opacity:1"
                   id="path1782" /></g><g
                 transform="matrix(0,1,1,0,0,196.45)"
                 id="g1788"><path
                   d="m -190.477,84.508 -5.109,-1.879 5.109,-1.879 c -0.816,1.109 -0.812,2.629 0,3.758 z"
                   style="fill:#800000;fill-opacity:1;fill-rule:evenodd;stroke:#800000;stroke-width:0.292323;stroke-linecap:butt;stroke-linejoin:round;stroke-miterlimit:4;stroke-dasharray:none;stroke-opacity:1"
                   id="path1786" /></g><g
                 transform="matrix(0,-1,-1,0,0,196.45)"
                 id="g1792"><path
                   d="m 181.613,-80.734 -5.109,-1.879 5.109,-1.879 c -0.816,1.109 -0.812,2.625 0,3.758 z"
                   style="fill:#800000;fill-opacity:1;fill-rule:evenodd;stroke:#800000;stroke-width:0.292323;stroke-linecap:butt;stroke-linejoin:round;stroke-miterlimit:4;stroke-dasharray:none;stroke-opacity:1"
                   id="path1790" /></g><text
                 transform="matrix(1,0,0,-1,88.29173,11.767184)"
                 style="font-variant:normal;font-size:7.2px;font-family:CairoFont-0;-inkscape-font-specification:CairoFont-0-0;writing-mode:lr-tb;fill:#800000;fill-opacity:1;fill-rule:nonzero;stroke:none"
                 id="text1800"><tspan
                   x="0 3.7224 7.3224001 9.9144001 12.5064 16.1064"
                   y="0"
                   sodipodi:role="line"
                   id="tspan1794">bottom</tspan><tspan
                   x="0 2.592 6.1919999"
                   y="-171.06339"
                   sodipodi:role="line"
                   id="tspan1796">top</tspan><tspan
                   x="-82.20472 -80.491119 -77.294319 -75.09832 29.781109 32.243507 33.957108 37.55711 41.279507"
                   y="-110.55118"
                   sodipodi:role="line"
                   id="tspan1798">leftright</tspan></text><g
                 transform="matrix(1,0,0,-1,0,196.45)"
                 id="g1804"><path
                   d="M 82.621,28.211 V 20.273"
                   style="fill:none;stroke:#800000;stroke-width:0.425197;stroke-linecap:butt;stroke-linejoin:miter;stroke-miterlimit:4;stroke-dasharray:1.27559, 0.425197;stroke-dashoffset:0;stroke-opacity:1"
                   id="path1802" /></g><g
                 transform="matrix(0,1,1,0,0,196.45)"
                 id="g1808"><path
                   d="m -23.664,84.508 -5.109,-1.879 5.109,-1.879 c -0.816,1.109 -0.813,2.629 0,3.758 z"
                   style="fill:#800000;fill-opacity:1;fill-rule:evenodd;stroke:#800000;stroke-width:0.292323;stroke-linecap:butt;stroke-linejoin:round;stroke-miterlimit:4;stroke-dasharray:none;stroke-opacity:1"
                   id="path1806" /></g><g
                 transform="matrix(1,0,0,-1,0,196.45)"
                 id="g1812"><path
                   d="m 82.652,165.34 v 10.84"
                   style="fill:none;stroke:#800000;stroke-width:0.425197;stroke-linecap:butt;stroke-linejoin:miter;stroke-miterlimit:4;stroke-dasharray:1.27559, 0.425197;stroke-dashoffset:0;stroke-opacity:1"
                   id="path1810" /></g><g
                 transform="matrix(0,-1,-1,0,0,196.45)"
                 id="g1816"><path
                   d="m 169.883,-80.766 -5.11,-1.879 5.11,-1.878 c -0.817,1.109 -0.809,2.625 0,3.757 z"
                   style="fill:#800000;fill-opacity:1;fill-rule:evenodd;stroke:#800000;stroke-width:0.292323;stroke-linecap:butt;stroke-linejoin:round;stroke-miterlimit:4;stroke-dasharray:none;stroke-opacity:1"
                   id="path1814" /></g></g></g></g></g></g></g></svg>
